<?xml version="1.0" encoding="UTF-8" standalone="no"?> <svg xmlns="http://www.w3.org/2000/svg" viewBox="0 0 64 64"><defs><style>.cls-1{fill:#ff6b6b;}</style></defs><g id="Layer_43" data-name="Layer 43"><path class="cls-1" d="M32,3.4h0A28.59,28.59,0,0,0,3.4,32h0A28.59,28.59,0,0,0,32,60.6h0A28.59,28.59,0,0,0,60.6,32h0A28.59,28.59,0,0,0,32,3.4ZM53.75,44A3.75,3.75,0,0,1,50,47.75H14A3.75,3.75,0,0,1,10.25,44V20A3.75,3.75,0,0,1,14,16.25H50A3.75,3.75,0,0,1,53.75,20Z"/><path class="cls-1" d="M24,32.48h-.75V25.84a.75.75,0,0,0-1.31-.49l-6.43,7.39A.75.75,0,0,0,16,34h5.67v4.18a.75.75,0,0,0,1.5,0V34H24a.75.75,0,0,0,0-1.5Z"/><path class="cls-1" d="M48.23,32.48h-.75V25.84a.74.74,0,0,0-.49-.7.73.73,0,0,0-.82.21l-6.43,7.39a.74.74,0,0,0-.12.8.75.75,0,0,0,.68.44H46v4.18a.75.75,0,0,0,1.5,0V34h.75a.75.75,0,0,0,0-1.5Z"/><path class="cls-1" d="M32,25.09a4.35,4.35,0,0,0-4.34,4.34v5.14a4.34,4.34,0,1,0,8.68,0V29.43A4.35,4.35,0,0,0,32,25.09Z"/></g></svg>