<?xml version="1.0" encoding="UTF-8" standalone="no"?> <svg xmlns="http://www.w3.org/2000/svg" width="1706.65" height="1578.12" viewBox="0 0 1706.65 1578.12">
  <g id="Layer_x0020_1" transform="translate(-313.33 -377.6)">
    <path id="Path_121" data-name="Path 121" d="M489.98,387.27,469.8,566.47H1656.09L1677,380.66l-6.58-3.06H496.74c-4.07,0-6.31,5.74-6.76,9.67Z" fill="#022a32" fill-rule="evenodd"/>
    <path id="Path_122" data-name="Path 122" d="M463.35,623.73,313.33,1955.58h191.1l82.69-384.53a28.64,28.64,0,0,1,28.3-24.28v.11l663.87-.08a28.632,28.632,0,0,1,28.63,28.63v380.29l191.89-.03,40.25-357.8a27.954,27.954,0,0,1,.43-3.8l109.17-970.37H463.36Zm333.69,446.21L960.24,813.7l-.1-.06a28.633,28.633,0,0,1,49.6,2.26l161.8,254.05,163.21,256.25.1-.06a28.644,28.644,0,0,1-24.15,44.02H657.88a28.629,28.629,0,0,1-22.65-46.14l161.81-254.06Z" fill="#022a32" fill-rule="evenodd"/>
    <path id="Path_123" data-name="Path 123" d="M984.29,1191.24a28.632,28.632,0,0,1,28.63,28.63v35.08a28.63,28.63,0,1,1-57.26,0v-35.08A28.632,28.632,0,0,1,984.29,1191.24Zm-139.16-90.65-135.21,212.3h548.74l-135.22-212.3L984.28,882.09l-139.16,218.5Zm139.16,57.37a28.632,28.632,0,0,1-28.63-28.63V1016.05a28.63,28.63,0,1,1,57.26,0v113.28A28.632,28.632,0,0,1,984.29,1157.96Z" fill="#db5656" fill-rule="evenodd"/>
    <path id="Path_124" data-name="Path 124" d="M1782.05,1591.81ZM1716.42,543.3,1600.74,1570.59h153.2a28.573,28.573,0,0,1,28.06,21.25l52.91,197.49h185.07L1716.41,543.3Z" fill="#022a32" fill-rule="evenodd"/>
  </g>
</svg>
